{
"asset":{"version":"2.0","generator":"quasi/examples/gen_cornell.rs"},
"scene":0,
"scenes":[{"nodes":[0]}],
"nodes":[{"mesh":0}],
"meshes":[{"primitives":[{"attributes":{"POSITION":0,"NORMAL":1},"indices":2,"material":0,"mode":4},{"attributes":{"POSITION":3,"NORMAL":4},"indices":5,"material":1,"mode":4},{"attributes":{"POSITION":6,"NORMAL":7},"indices":8,"material":2,"mode":4},{"attributes":{"POSITION":9,"NORMAL":10},"indices":11,"material":3,"mode":4}]}],
"materials":[{"name":"white","pbrMetallicRoughness":{"baseColorFactor":[0.73,0.73,0.73,1.0],"metallicFactor":0,"roughnessFactor":1},"emissiveFactor":[0,0,0]},{"name":"red","pbrMetallicRoughness":{"baseColorFactor":[0.65,0.05,0.05,1.0],"metallicFactor":0,"roughnessFactor":1},"emissiveFactor":[0,0,0]},{"name":"green","pbrMetallicRoughness":{"baseColorFactor":[0.12,0.45,0.15,1.0],"metallicFactor":0,"roughnessFactor":1},"emissiveFactor":[0,0,0]},{"name":"light","pbrMetallicRoughness":{"baseColorFactor":[0,0,0,1.0],"metallicFactor":0,"roughnessFactor":1},"emissiveFactor":[15,15,15]}],
"accessors":[{"bufferView":0,"componentType":5126,"count":325,"type":"VEC3","min":[-1,0,-1],"max":[1,2,1]},{"bufferView":1,"componentType":5126,"count":325,"type":"VEC3"},{"bufferView":2,"componentType":5125,"count":1248,"type":"SCALAR"},{"bufferView":3,"componentType":5126,"count":25,"type":"VEC3","min":[-1,0,-1],"max":[-1,2,1]},{"bufferView":4,"componentType":5126,"count":25,"type":"VEC3"},{"bufferView":5,"componentType":5125,"count":96,"type":"SCALAR"},{"bufferView":6,"componentType":5126,"count":25,"type":"VEC3","min":[1,0,-1],"max":[1,2,1]},{"bufferView":7,"componentType":5126,"count":25,"type":"VEC3"},{"bufferView":8,"componentType":5125,"count":96,"type":"SCALAR"},{"bufferView":9,"componentType":5126,"count":25,"type":"VEC3","min":[-0.25,1.99,-0.25],"max":[0.25,1.99,0.25]},{"bufferView":10,"componentType":5126,"count":25,"type":"VEC3"},{"bufferView":11,"componentType":5125,"count":96,"type":"SCALAR"}],
"bufferViews":[{"buffer":0,"byteOffset":0,"byteLength":3900,"target":34962},{"buffer":0,"byteOffset":3900,"byteLength":3900,"target":34962},{"buffer":0,"byteOffset":7800,"byteLength":4992,"target":34963},{"buffer":0,"byteOffset":12792,"byteLength":300,"target":34962},{"buffer":0,"byteOffset":13092,"byteLength":300,"target":34962},{"buffer":0,"byteOffset":13392,"byteLength":384,"target":34963},{"buffer":0,"byteOffset":13776,"byteLength":300,"target":34962},{"buffer":0,"byteOffset":14076,"byteLength":300,"target":34962},{"buffer":0,"byteOffset":14376,"byteLength":384,"target":34963},{"buffer":0,"byteOffset":14760,"byteLength":300,"target":34962},{"buffer":0,"byteOffset":15060,"byteLength":300,"target":34962},{"buffer":0,"byteOffset":15360,"byteLength":384,"target":34963}],
"buffers":[{"byteLength":15744,"uri":"data:application/octet-stream;base64,"}]
}
