{
"asset":{"version":"2.0","generator":"quasi/examples/gen_cornell.rs"},
"scene":0,
"scenes":[{"nodes":[0]}],
"nodes":[{"mesh":0}],
"meshes":[{"primitives":[{"attributes":{"POSITION":0,"NORMAL":1,"TEXCOORD_0":2},"indices":3,"material":0,"mode":4},{"attributes":{"POSITION":4,"NORMAL":5,"TEXCOORD_0":6},"indices":7,"material":1,"mode":4},{"attributes":{"POSITION":8,"NORMAL":9,"TEXCOORD_0":10},"indices":11,"material":2,"mode":4},{"attributes":{"POSITION":12,"NORMAL":13,"TEXCOORD_0":14},"indices":15,"material":3,"mode":4},{"attributes":{"POSITION":16,"NORMAL":17,"TEXCOORD_0":18},"indices":19,"material":4,"mode":4}]}],
"materials":[{"name":"white","pbrMetallicRoughness":{"baseColorFactor":[0.73,0.73,0.73,1.0],"metallicFactor":0,"roughnessFactor":1},"emissiveFactor":[0,0,0]},{"name":"red","pbrMetallicRoughness":{"baseColorFactor":[0.65,0.05,0.05,1.0],"metallicFactor":0,"roughnessFactor":1},"emissiveFactor":[0,0,0]},{"name":"green","pbrMetallicRoughness":{"baseColorFactor":[0.12,0.45,0.15,1.0],"metallicFactor":0,"roughnessFactor":1},"emissiveFactor":[0,0,0]},{"name":"light","pbrMetallicRoughness":{"baseColorFactor":[0,0,0,1.0],"metallicFactor":0,"roughnessFactor":1},"emissiveFactor":[15,15,15]},{"name":"white","pbrMetallicRoughness":{"baseColorFactor":[1,1,1,1.0],"metallicFactor":0,"roughnessFactor":1},"emissiveFactor":[0,0,0],"extras":{"absorption":[0.01,0.01,0.01],"scattering":[0.2,0.2,0.2]}}],
"accessors":[{"bufferView":0,"componentType":5126,"count":12,"type":"VEC3","min":[-1,0,-1],"max":[1,2,1]},{"bufferView":1,"componentType":5126,"count":12,"type":"VEC3"},{"bufferView":2,"componentType":5126,"count":12,"type":"VEC2"},{"bufferView":3,"componentType":5125,"count":18,"type":"SCALAR"},{"bufferView":4,"componentType":5126,"count":4,"type":"VEC3","min":[-1,0,-1],"max":[-1,2,1]},{"bufferView":5,"componentType":5126,"count":4,"type":"VEC3"},{"bufferView":6,"componentType":5126,"count":4,"type":"VEC2"},{"bufferView":7,"componentType":5125,"count":6,"type":"SCALAR"},{"bufferView":8,"componentType":5126,"count":4,"type":"VEC3","min":[1,0,-1],"max":[1,2,1]},{"bufferView":9,"componentType":5126,"count":4,"type":"VEC3"},{"bufferView":10,"componentType":5126,"count":4,"type":"VEC2"},{"bufferView":11,"componentType":5125,"count":6,"type":"SCALAR"},{"bufferView":12,"componentType":5126,"count":4,"type":"VEC3","min":[-0.25,1.99,-0.25],"max":[0.25,1.99,0.25]},{"bufferView":13,"componentType":5126,"count":4,"type":"VEC3"},{"bufferView":14,"componentType":5126,"count":4,"type":"VEC2"},{"bufferView":15,"componentType":5125,"count":6,"type":"SCALAR"},{"bufferView":16,"componentType":5126,"count":8,"type":"VEC3","min":[-0.99,0.01,-0.99],"max":[0.99,1.7,0.99]},{"bufferView":17,"componentType":5126,"count":8,"type":"VEC3"},{"bufferView":18,"componentType":5126,"count":8,"type":"VEC2"},{"bufferView":19,"componentType":5125,"count":36,"type":"SCALAR"}],
"bufferViews":[{"buffer":0,"byteOffset":0,"byteLength":144,"target":34962},{"buffer":0,"byteOffset":144,"byteLength":144,"target":34962},{"buffer":0,"byteOffset":288,"byteLength":96,"target":34962},{"buffer":0,"byteOffset":384,"byteLength":72,"target":34963},{"buffer":0,"byteOffset":456,"byteLength":48,"target":34962},{"buffer":0,"byteOffset":504,"byteLength":48,"target":34962},{"buffer":0,"byteOffset":552,"byteLength":32,"target":34962},{"buffer":0,"byteOffset":584,"byteLength":24,"target":34963},{"buffer":0,"byteOffset":608,"byteLength":48,"target":34962},{"buffer":0,"byteOffset":656,"byteLength":48,"target":34962},{"buffer":0,"byteOffset":704,"byteLength":32,"target":34962},{"buffer":0,"byteOffset":736,"byteLength":24,"target":34963},{"buffer":0,"byteOffset":760,"byteLength":48,"target":34962},{"buffer":0,"byteOffset":808,"byteLength":48,"target":34962},{"buffer":0,"byteOffset":856,"byteLength":32,"target":34962},{"buffer":0,"byteOffset":888,"byteLength":24,"target":34963},{"buffer":0,"byteOffset":912,"byteLength":96,"target":34962},{"buffer":0,"byteOffset":1008,"byteLength":96,"target":34962},{"buffer":0,"byteOffset":1104,"byteLength":64,"target":34962},{"buffer":0,"byteOffset":1168,"byteLength":144,"target":34963}],
"buffers":[{"byteLength":1312,"uri":"data:application/octet-stream;base64,"}]
}
