{
"asset":{"version":"2.0","generator":"quasi/examples/gen_cornell.rs"},
"scene":0,
"scenes":[{"nodes":[0]}],
"nodes":[{"mesh":0}],
"meshes":[{"primitives":[{"attributes":{"POSITION":0,"NORMAL":1,"TEXCOORD_0":2},"indices":3,"material":1,"mode":4},{"attributes":{"POSITION":4,"NORMAL":5,"TEXCOORD_0":6},"indices":7,"material":2,"mode":4}]}],
"materials":[{"name":"white","pbrMetallicRoughness":{"baseColorFactor":[0.73,0.73,0.73,1.0],"metallicFactor":0,"roughnessFactor":1},"emissiveFactor":[0,0,0]},{"name":"red","pbrMetallicRoughness":{"baseColorFactor":[0.55,0.52,0.48,1.0],"metallicFactor":0,"roughnessFactor":1},"normalTexture":{"index":1},"emissiveFactor":[0,0,0]},{"name":"red","pbrMetallicRoughness":{"baseColorFactor":[0.95,0.78,0.46,1.0],"metallicFactor":1,"roughnessFactor":1,"metallicRoughnessTexture":{"index":0}},"emissiveFactor":[0,0,0]}],
"accessors":[{"bufferView":0,"componentType":5126,"count":4,"type":"VEC3","min":[-1,0,-1],"max":[1,0,1]},{"bufferView":1,"componentType":5126,"count":4,"type":"VEC3"},{"bufferView":2,"componentType":5126,"count":4,"type":"VEC2"},{"bufferView":3,"componentType":5125,"count":6,"type":"SCALAR"},{"bufferView":4,"componentType":5126,"count":2503,"type":"VEC3","min":[-0.38940212,0.1665495,-0.30089587],"max":[0.38639402,0.93498003,0.3010732]},{"bufferView":5,"componentType":5126,"count":2503,"type":"VEC3"},{"bufferView":6,"componentType":5126,"count":2503,"type":"VEC2"},{"bufferView":7,"componentType":5125,"count":14904,"type":"SCALAR"}],
"bufferViews":[{"buffer":0,"byteOffset":0,"byteLength":48,"target":34962},{"buffer":0,"byteOffset":48,"byteLength":48,"target":34962},{"buffer":0,"byteOffset":96,"byteLength":32,"target":34962},{"buffer":0,"byteOffset":128,"byteLength":24,"target":34963},{"buffer":0,"byteOffset":152,"byteLength":30036,"target":34962},{"buffer":0,"byteOffset":30188,"byteLength":30036,"target":34962},{"buffer":0,"byteOffset":60224,"byteLength":20024,"target":34962},{"buffer":0,"byteOffset":80248,"byteLength":59616,"target":34963},{"buffer":0,"byteOffset":139864,"byteLength":53491},{"buffer":0,"byteOffset":193355,"byteLength":8675}],
"buffers":[{"byteLength":202030,"uri":"data:application/octet-stream;base64,"}],"textures":[{"source":0},{"source":1}],"images":[{"bufferView":8,"mimeType":"image/png"},{"bufferView":9,"mimeType":"image/png"}]
}
