{
"asset":{"version":"2.0","generator":"quasi/examples/gen_cornell.rs"},
"scene":0,
"scenes":[{"nodes":[0]}],
"nodes":[{"mesh":0}],
"meshes":[{"primitives":[{"attributes":{"POSITION":0,"NORMAL":1,"TEXCOORD_0":2},"indices":3,"material":0,"mode":4},{"attributes":{"POSITION":4,"NORMAL":5,"TEXCOORD_0":6},"indices":7,"material":1,"mode":4}]}],
"materials":[{"name":"white","pbrMetallicRoughness":{"baseColorFactor":[0.73,0.73,0.73,1.0],"metallicFactor":0,"roughnessFactor":1},"emissiveFactor":[0,0,0]},{"name":"white","pbrMetallicRoughness":{"baseColorFactor":[1,1,1,1.0],"metallicFactor":0,"roughnessFactor":1},"emissiveFactor":[0,0,0],"extras":{"absorption":[0.1,0.1,0.1],"scattering":[10,10,10],"phase_g":0.4,"cloud_center":[0,1,0],"cloud_radius":0.5}}],
"accessors":[{"bufferView":0,"componentType":5126,"count":4,"type":"VEC3","min":[-1,0,-1],"max":[1,0,1]},{"bufferView":1,"componentType":5126,"count":4,"type":"VEC3"},{"bufferView":2,"componentType":5126,"count":4,"type":"VEC2"},{"bufferView":3,"componentType":5125,"count":6,"type":"SCALAR"},{"bufferView":4,"componentType":5126,"count":8,"type":"VEC3","min":[-0.6,0.4,-0.6],"max":[0.6,1.6,0.6]},{"bufferView":5,"componentType":5126,"count":8,"type":"VEC3"},{"bufferView":6,"componentType":5126,"count":8,"type":"VEC2"},{"bufferView":7,"componentType":5125,"count":36,"type":"SCALAR"}],
"bufferViews":[{"buffer":0,"byteOffset":0,"byteLength":48,"target":34962},{"buffer":0,"byteOffset":48,"byteLength":48,"target":34962},{"buffer":0,"byteOffset":96,"byteLength":32,"target":34962},{"buffer":0,"byteOffset":128,"byteLength":24,"target":34963},{"buffer":0,"byteOffset":152,"byteLength":96,"target":34962},{"buffer":0,"byteOffset":248,"byteLength":96,"target":34962},{"buffer":0,"byteOffset":344,"byteLength":64,"target":34962},{"buffer":0,"byteOffset":408,"byteLength":144,"target":34963}],
"buffers":[{"byteLength":552,"uri":"data:application/octet-stream;base64,"}]
}
